<svg id="Group_76" data-name="Group 76" xmlns="http://www.w3.org/2000/svg" width="62.013" height="57.603" viewBox="0 0 62.013 57.603">
  <path id="Path_736" data-name="Path 736" d="M411.863,275.9a2.681,2.681,0,0,0-.788-.1,3.18,3.18,0,0,0-1.067,6.173,16.334,16.334,0,0,0,.61-1.55A32.937,32.937,0,0,0,411.863,275.9Z" transform="translate(-350.497 -251.502)" fill="#fff"/>
  <path id="Path_737" data-name="Path 737" d="M187.087,206.814h7.57l3.861,5.564,8.764-19.409,8.129,18.494,5.259-5.386,5.437,11.279,4.344-10.543h6.885a5.242,5.242,0,0,1,5.157-4.395,5.836,5.836,0,0,1,1.143.127c1.88-13.566-4.522-28.2-21.771-20.044a22.1,22.1,0,0,0-8.917,8.485,22.438,22.438,0,0,0-8.917-8.485c-17.224-8.129-23.6,6.4-21.8,19.917A5.246,5.246,0,0,1,187.087,206.814Z" transform="translate(-181.94 -180.153)" fill="#fff"/>
  <path id="Path_738" data-name="Path 738" d="M246.409,261.173H240.82l-5.564,13.49-6.148-12.753-5.335,5.462L216.279,250.3l-8.358,18.494-5.309-7.621h-6.605A5.188,5.188,0,0,1,194,264.2c7.393,15.243,27.945,25.887,27.945,25.887s19.993-10.34,27.614-25.252A5.307,5.307,0,0,1,246.409,261.173Z" transform="translate(-190.936 -232.48)" fill="#fff"/>
  <path id="Path_739" data-name="Path 739" d="M184.4,276.1a30.383,30.383,0,0,0,1.27,4.573l.3.838A3.191,3.191,0,0,0,184.4,276.1Z" transform="translate(-183.775 -251.725)" fill="#fff"/>
</svg>
